<svg id="Capa_1" enable-background="new 0 0 508.003 508.003" height="512" viewBox="0 0 508.003 508.003" width="512" xmlns="http://www.w3.org/2000/svg"><g><g><circle cx="343.299" cy="133.945" r="14.883"/><path d="m378.145 29.766h24.685c8.219 0 14.883-6.664 14.883-14.883s-6.664-14.883-14.883-14.883h-24.685c-43.834 0-79.495 35.661-79.495 79.495v11.385c-18.401 18.798-29.766 44.51-29.766 72.831 0 24.619-20.029 44.648-44.648 44.648-90.84 0-163.711 75.592-163.711 165.695v59.531c0 8.219 6.664 14.883 14.883 14.883h109.864l25.652 51.304c3.677 7.353 12.618 10.332 19.968 6.656 7.352-3.676 10.332-12.616 6.656-19.968l-18.996-37.992h5.684c6.739 0 13.425-.358 20.043-1.05l26.177 52.354c3.677 7.353 12.618 10.332 19.968 6.656 7.352-3.676 10.332-12.616 6.656-19.968l-22.377-44.753c80.927-22.152 143.011-97.77 143.011-188.7v-148.827c0-8.206 6.676-14.883 14.883-14.883 8.219 0 14.883-6.664 14.883-14.883s-6.664-14.883-14.883-14.883h-59.531c-15.536 0-30.286 3.424-43.542 9.549 4.799-22.436 24.773-39.314 48.621-39.314zm-153.909 208.359c15.393 0 29.708-4.698 41.59-12.735-14.74 76.145-81.166 133.782-160.652 133.782h-14.078c7.33-67.976 64.238-121.047 133.14-121.047zm148.828-148.828h17.433c-1.651 4.656-2.55 9.667-2.55 14.883v148.828c0 91.365-73.441 165.695-163.711 165.695h-133.945v-29.766h14.883c107.002 0 193.477-88.573 193.477-195.461v-29.766c-.001-41.031 33.381-74.413 74.413-74.413z"/></g></g></svg>